<svg xmlns="http://www.w3.org/2000/svg" width="14" height="12" viewBox="0 0 14 12" fill="none">
  <path fill-rule="evenodd" clip-rule="evenodd" d="M6.45226 4.49604C6.09841 5.49737 5.14343 6.21478 4.02083 6.21478C2.89823 6.21478 1.94333 5.49737 1.58941 4.49604H1.44269C0.968071 4.49604 0.583328 4.1113 0.583328 3.63669C0.583328 3.16206 0.968071 2.77732 1.44269 2.77732H1.58941C1.94326 1.77599 2.89823 1.05859 4.02083 1.05859C5.14343 1.05859 6.09833 1.77599 6.45226 2.77732H12.5572C13.0317 2.77732 13.4165 3.16206 13.4165 3.63669C13.4165 4.1113 13.0317 4.49604 12.5572 4.49604H6.45226ZM4.88024 3.63669C4.88024 4.1113 4.4955 4.49604 4.02087 4.49604C3.54626 4.49604 3.16152 4.1113 3.16152 3.63669C3.16152 3.16206 3.54626 2.77732 4.02087 2.77732C4.4955 2.77732 4.88024 3.16206 4.88024 3.63669Z" fill="white"/>
  <path fill-rule="evenodd" clip-rule="evenodd" d="M12.4103 9.22359C12.0563 10.2249 11.1014 10.9423 9.97898 10.9423C8.85655 10.9423 7.90151 10.2249 7.5476 9.22359H2.35937C1.88474 9.22359 1.5 8.83884 1.5 8.36422C1.5 7.8896 1.88474 7.50486 2.35937 7.50486H7.5476C7.90145 6.50353 8.85641 5.78613 9.97898 5.78613C11.1016 5.78613 12.0564 6.50353 12.4103 7.50486H12.557C13.0316 7.50486 13.4164 7.8896 13.4164 8.36422C13.4164 8.83884 13.0316 9.22359 12.557 9.22359H12.4103ZM10.8383 8.36422C10.8383 8.83884 10.4535 9.22359 9.97889 9.22359C9.50433 9.22359 9.11956 8.83884 9.11956 8.36422C9.11956 7.8896 9.50433 7.50486 9.97889 7.50486C10.4535 7.50486 10.8383 7.8896 10.8383 8.36422Z" fill="white"/>
</svg>