<svg xmlns="http://www.w3.org/2000/svg" width="25" height="24" viewBox="0 0 25 24" fill="none">
  <path d="M9.995 16V19V19.5C9.995 19.7762 9.77114 20 9.495 20H8.995H6.995C5.89043 20 4.995 19.1046 4.995 18V10C4.995 9.33129 5.3292 8.70683 5.8856 8.3359L11.8856 4.3359C12.5574 3.88803 13.4326 3.88803 14.1044 4.3359L20.1044 8.3359C20.6608 8.70683 20.995 9.33129 20.995 10V18C20.995 19.1046 20.0996 20 18.995 20H16.995H16.495C16.2189 20 15.995 19.7762 15.995 19.5V19V16C15.995 14.3432 14.6519 13 12.995 13C11.3381 13 9.995 14.3432 9.995 16Z" stroke="white" stroke-width="2"/>
</svg>