<svg width="25" height="24" viewBox="0 0 25 24" fill="none" xmlns="http://www.w3.org/2000/svg">
<path d="M12.5009 9.4859L13.4755 9.26161M13.4755 9.26161L13.4751 9.26011L13.4741 9.25553L13.4699 9.23755L13.4542 9.1689L13.3974 8.9216C13.3503 8.71568 13.2869 8.43846 13.222 8.15293C13.0879 7.5625 12.9596 6.98913 12.9404 6.88286L12.9391 6.87548C12.4378 4.20425 14.1819 2.8434 15.2072 2.14655C15.2633 2.10843 15.3108 2.08004 15.3501 2.05895C15.3642 2.10154 15.3781 2.15287 15.3905 2.21332C15.7973 4.19781 16.618 5.60174 18.1742 7.74356C19.2608 9.23919 19.9521 10.3711 20.3819 11.4994C20.8053 12.611 20.995 13.7731 20.995 15.3468C20.995 17.0093 20.1296 18.6629 18.6564 19.9266C17.1873 21.1867 15.1748 22 13.03 22C8.66315 22 5.37105 19.3718 5.03621 15.2655C4.82844 12.7175 5.3827 10.7957 7.15563 8.84208C7.53268 8.4266 7.98497 8.00665 8.48072 7.6139C8.53806 7.56846 8.62866 7.5841 8.66272 7.66665L8.67213 7.68947L8.68266 7.71179C8.69611 7.74031 8.71458 7.78193 8.738 7.83473C8.93591 8.28078 9.48774 9.52452 10.3595 10.4078C10.6259 10.6777 10.9184 10.9007 11.2291 11.0495C11.5313 11.1942 11.9145 11.2976 12.3216 11.2245C12.7688 11.1443 13.1405 10.8662 13.3446 10.4568C13.5302 10.0845 13.5417 9.68136 13.4898 9.33695L13.4841 9.29901L13.4755 9.26161Z" stroke="white" stroke-width="2"/>
</svg>
