<svg width="25" height="24" viewBox="0 0 25 24" fill="none" xmlns="http://www.w3.org/2000/svg">
<path fill-rule="evenodd" clip-rule="evenodd" d="M12.9835 1.875C10.5333 1.875 10.2083 1.88559 9.2237 1.92883C8.15994 1.97572 7.38087 2.15136 6.68648 2.42062C5.93601 2.70493 5.25933 3.14306 4.6953 3.71796C4.12752 4.27913 3.6855 4.95774 3.40374 5.70373C3.13541 6.39917 2.95958 7.17303 2.91249 8.23698C2.86554 9.2259 2.85498 9.55388 2.85498 12.0018C2.85498 14.4515 2.86559 14.7767 2.90883 15.7611C2.95574 16.8247 3.13142 17.6035 3.40095 18.298C3.68672 19.0518 4.12937 19.7268 4.69683 20.2871C5.25824 20.8554 5.93747 21.298 6.68444 21.5799C7.38038 21.8484 8.15487 22.0242 9.2201 22.0711C10.2047 22.1145 10.53 22.125 12.9801 22.125C15.4301 22.125 15.7553 22.1145 16.74 22.0711C17.805 22.0242 18.5847 21.8484 19.2801 21.5783C20.7855 20.9963 21.9761 19.8059 22.5582 18.3006C22.8273 17.6039 23.004 16.8282 23.0511 15.761C23.0943 14.7765 23.105 14.4515 23.105 12.0018C23.105 9.55919 23.1015 9.23023 23.0582 8.2425C23.0112 7.179 22.8357 6.40011 22.5662 5.70545C22.2818 4.9553 21.8436 4.27878 21.2685 3.7149C20.7075 3.14734 20.0288 2.70522 19.2824 2.42358C18.587 2.15531 17.813 1.97956 16.749 1.93249C15.7599 1.88556 15.4319 1.875 12.9835 1.875ZM7.91783 4.37909C8.28243 4.27713 8.72484 4.20302 9.32241 4.17666L9.32162 4.17888L9.32412 4.1787L9.32241 4.17666L9.43244 4.17184C10.2152 4.125 11.1673 4.125 12.3545 4.125H12.9835H13.6055C14.87 4.125 15.8679 4.125 16.6784 4.18161C17.2292 4.20762 17.646 4.27461 17.994 4.36702C18.396 4.46567 18.7376 4.60451 19.0418 4.79991C19.2707 4.94008 19.4831 5.10851 19.6731 5.30142L19.6808 5.30918L19.6886 5.31676C19.9623 5.58417 20.1849 5.89551 20.3508 6.24238C20.408 6.35979 20.4587 6.48285 20.5035 6.6126C20.6583 7.03767 20.7756 7.55514 20.8103 8.34144C20.8359 8.92434 20.847 9.25343 20.8517 10.0159C20.855 10.4316 20.855 10.8829 20.855 11.3745V12.0018V12.6255C20.855 13.8066 20.855 14.7551 20.8088 15.5355L20.8034 15.6621C20.7762 16.2747 20.699 16.723 20.5925 17.0947C20.4816 17.5137 20.3241 17.8662 20.1 18.1797L20.0793 18.2085C19.8398 18.556 19.5387 18.8574 19.1912 19.0974L19.1597 19.1201C18.8498 19.3416 18.5019 19.4981 18.0891 19.6086C17.7164 19.7169 17.2626 19.7959 16.641 19.8234L16.5168 19.8288C15.7362 19.875 14.7873 19.875 13.6055 19.875H12.9801H12.3545C11.1726 19.875 10.2236 19.875 9.44282 19.8288L9.31916 19.8234C8.70936 19.7964 8.26236 19.7199 7.89196 19.6142C7.50944 19.5137 7.18235 19.3744 6.88979 19.1815C6.67439 19.0459 6.47408 18.885 6.29393 18.702L6.28154 18.6898C6.09834 18.5096 5.93744 18.31 5.80131 18.0947C5.61074 17.8067 5.47233 17.4853 5.3718 17.1106C5.26328 16.7377 5.18408 16.2839 5.15664 15.662L5.15912 15.6622L5.15871 15.6562L5.15664 15.662L5.15112 15.5355C5.10498 14.7551 5.10498 13.8066 5.10498 12.6255V12.0018V11.3745C5.10498 10.1029 5.10498 9.10084 5.16255 8.28792C5.18724 7.78715 5.24607 7.39782 5.32715 7.07002C5.43897 6.57735 5.60711 6.17399 5.85987 5.82027L5.86727 5.80997C5.98839 5.63219 6.12711 5.46573 6.28154 5.3137L6.28929 5.30609L6.2969 5.2983C6.46538 5.12589 6.65132 4.97377 6.85262 4.84333C7.16111 4.63302 7.50776 4.48426 7.91783 4.37909ZM12.98 14.625C14.4297 14.625 15.605 13.4497 15.605 12C15.605 10.5503 14.4297 9.375 12.98 9.375C11.5302 9.375 10.355 10.5503 10.355 12C10.355 13.4497 11.5302 14.625 12.98 14.625ZM12.98 16.875C15.6724 16.875 17.855 14.6924 17.855 12C17.855 9.3076 15.6724 7.125 12.98 7.125C10.2876 7.125 8.10498 9.3076 8.10498 12C8.10498 14.6924 10.2876 16.875 12.98 16.875ZM17.855 8.24985C18.4763 8.24985 18.98 7.74615 18.98 7.12492C18.98 6.50356 18.4763 6 17.855 6C17.2337 6 16.73 6.50356 16.73 7.12492C16.73 7.74615 17.2337 8.24985 17.855 8.24985Z" fill="white"/>
</svg>
