<svg width="57" height="49" viewBox="0 0 57 49" fill="none" xmlns="http://www.w3.org/2000/svg">
<g clip-path="url(#clip0_2_4268)">
<path fill-rule="evenodd" clip-rule="evenodd" d="M40.202 15.0834C40.3945 15.0102 40.568 14.9443 40.7105 14.8998C44.0134 13.8952 45.8887 19.1601 42.5737 20.1648C39.0287 21.2584 35.0483 21.7162 32.8947 17.8121C31.8058 15.8409 31.8663 13.7426 32.7011 11.9876C32.7253 11.9367 32.7132 11.8859 32.6769 11.8477C31.3339 10.5887 30.5354 8.74475 30.6201 6.4938C30.7895 1.62312 35.266 0.0843419 39.2344 0.54216C42.6584 0.936393 41.6905 6.46837 38.2786 6.07414C37.3954 5.9724 35.8226 5.80707 35.9557 7.02793C36.0998 8.32091 36.8546 8.28196 37.6077 8.2431C37.8028 8.23304 37.9977 8.22298 38.1818 8.23606C40.8556 8.42682 41.0371 12.6107 38.6416 13.4374C38.5745 13.4604 38.4973 13.4841 38.4143 13.5095C37.7194 13.7224 36.6163 14.0604 37.589 15.2305C38.1221 15.8739 39.3482 15.4079 40.202 15.0834ZM31.9805 19.6584C30.3397 19.3921 27.4715 18.3648 26.9489 17.8702C26.7909 17.7307 26.7665 17.5024 26.9245 17.3629C27.0096 17.2995 28.5045 15.7903 28.9177 14.8771C30.5585 11.25 29.5254 6.49407 25.5998 5.2385C22.136 4.12245 17.2381 6.45602 17.2988 10.5651C17.3223 12.0264 17.5875 13.4877 17.8545 14.9592C18.0024 15.7736 18.1507 16.5913 18.259 17.4136C18.3975 18.4489 18.4249 19.4262 18.4528 20.4248C18.4862 21.616 18.5203 22.8375 18.7451 24.2241C19.3042 27.7372 24.0684 26.4562 23.9347 23.0446C23.9226 22.8417 24.1292 22.7149 24.2993 22.829C26.2075 24.1353 28.4438 24.5792 30.6679 24.9217C34.0466 25.4543 35.2498 20.1911 31.9805 19.6584ZM22.9868 13.444C22.3669 13.444 21.9172 11.6051 22.2697 10.2861C22.4884 9.49981 23.7038 9.08129 24.032 9.90565C24.3601 10.7553 24.0806 13.4567 22.9868 13.444ZM12.5942 27.24C3.73187 32.3738 6.03739 15.1921 12.1874 19.4641C16.4168 22.4121 18.7809 17.4726 15.7366 15.0555C13.0063 12.9038 8.35041 12.2385 5.41594 14.2286C2.58768 16.1503 1.06278 20.2887 0.816622 23.7076C0.532589 27.675 2.24971 31.1062 5.43698 33.1735C8.88556 35.4069 12.3237 34.7544 15.437 32.4001C18.4324 30.1275 15.5165 25.543 12.5942 27.24ZM52.9076 35.4462C51.5521 36.7061 48.0181 38.2713 47.3404 36.3625C46.79 34.8021 47.9556 34.5927 49.0353 34.3988C49.2852 34.354 49.5305 34.3098 49.7488 34.25C52.5808 33.461 52.3024 28.269 49.2163 28.4854C48.9443 28.5023 48.5339 28.6088 48.0575 28.7324C46.3928 29.1642 43.9221 29.8051 43.7339 27.5691C43.5402 25.1894 47.4372 25.3676 48.9742 25.5966C52.375 26.0929 52.484 19.8574 49.0348 19.972C44.4479 20.1247 37.7552 21.5499 38.3846 27.8363C38.6145 30.1906 39.74 32.6975 41.8217 33.7792C41.9064 33.8174 41.9548 33.9192 41.9306 34.021C41.5433 35.6244 41.7975 37.3551 42.6083 38.8312C45.404 43.9214 51.5763 42.5216 55.558 40.1165C58.5352 38.3222 55.4854 33.0411 52.9076 35.4462ZM28.0168 29.7378C28.0201 29.7354 28.0232 29.733 28.0262 29.7308C33.8399 21.6423 42.0952 31.3409 38.9526 45.6162C37.8285 50.0027 33.9366 48.7603 33.8278 45.6795C33.7783 44.3732 34.0102 43.368 34.247 42.3415C34.3573 41.8638 34.4686 41.3814 34.553 40.862C34.8914 38.7194 34.831 37.2868 34.7827 36.6402C34.408 31.7339 29.5007 31.6451 29.7908 35.8669C29.9238 37.7812 29.8392 39.5054 29.4041 41.293C28.5338 44.9062 23.3244 44.0441 23.9287 40.3422L23.9442 40.249C24.2254 38.5575 24.719 35.589 24.3155 34.2821C24.098 33.5975 23.5661 32.8749 22.9376 32.8876C22.5871 32.9003 22.3212 33.1411 22.2245 33.2299C20.632 34.7516 20.772 39.9079 20.8588 43.1076C20.8682 43.4534 20.877 43.7764 20.8829 44.0694C20.9554 48.139 17.8854 47.5432 16.858 46.5163C14.2956 43.9807 16.157 26.8276 23.4332 26.8276C25.6518 26.8276 26.7567 28.6916 27.2062 29.4499C27.3028 29.6128 27.3691 29.7247 27.4097 29.7561C27.7014 29.9764 27.9255 29.8069 28.0168 29.7378Z" fill="white"/>
</g>
<defs>
<clipPath id="clip0_2_4268">
<rect width="56" height="48" fill="white" transform="translate(0.786194 0.465332)"/>
</clipPath>
</defs>
</svg>
