<svg width="16" height="16" viewBox="0 0 16 16" fill="none" xmlns="http://www.w3.org/2000/svg">
<path fill-rule="evenodd" clip-rule="evenodd" d="M5.13366 9.4522C5.93569 8.6501 5.93569 7.3498 5.13366 6.5477L1.00008 2.41417C0.609549 2.02364 0.609549 1.39048 1.00008 0.99995C1.3906 0.60943 2.02376 0.60943 2.41429 0.99995L6.5479 5.13353C7.3499 5.93557 8.6502 5.93557 9.4523 5.13353L13.5859 0.99995C13.9764 0.60943 14.6096 0.60943 15.0001 0.99995C15.3906 1.39048 15.3906 2.02364 15.0001 2.41417L10.8665 6.5477C10.0645 7.3498 10.0645 8.6501 10.8665 9.4522L15.0001 13.5857C15.3906 13.9763 15.3906 14.6094 15.0001 15C14.6096 15.3905 13.9764 15.3905 13.5859 15L9.4523 10.8664C8.6503 10.0643 7.3499 10.0643 6.5479 10.8664L2.41429 15C2.02376 15.3905 1.3906 15.3905 1.00008 15C0.609549 14.6094 0.609549 13.9763 1.00007 13.5857L5.13366 9.4522Z" fill="white"/>
</svg>
