<svg width="20" height="20" class="mr-2 text-black" xmlns="http://www.w3.org/2000/svg" viewBox="0 0 21 20" fill="none"><path d="M2.5 3C2.5 2.44774 2.94774 2 3.5 2H5.5C6.05226 2 6.5 1.55226 6.5 1C6.5 0.44774 6.05226 0 5.5 0H3.5C1.84312 0 0.5 1.34312 0.5 3V5C0.5 5.55226 0.94774 6 1.5 6C2.05226 6 2.5 5.55226 2.5 5V3Z" fill="currentColor"></path><path d="M18.5 17.001C18.5 17.5532 18.0523 18.001 17.5 18.001H15.5C14.9477 18.001 14.5 18.4487 14.5 19.001C14.5 19.5532 14.9477 20.001 15.5 20.001H17.5C19.1569 20.001 20.5 18.6579 20.5 17.001V15.001C20.5 14.4487 20.0523 14.001 19.5 14.001C18.9477 14.001 18.5 14.4487 18.5 15.001V17.001Z" fill="currentColor"></path><path d="M2.5 17.001C2.5 17.5532 2.94774 18.001 3.5 18.001H5.5C6.05226 18.001 6.5 18.4487 6.5 19.001C6.5 19.5532 6.05226 20.001 5.5 20.001H3.5C1.84312 20.001 0.5 18.6579 0.5 17.001V15.001C0.5 14.4487 0.94774 14.001 1.5 14.001C2.05226 14.001 2.5 14.4487 2.5 15.001V17.001Z" fill="currentColor"></path><path d="M17.5 2C18.0523 2 18.5 2.44774 18.5 3V5C18.5 5.55226 18.9477 6 19.5 6C20.0523 6 20.5 5.55226 20.5 5V3C20.5 1.34312 19.1569 0 17.5 0H15.5C14.9477 0 14.5 0.44774 14.5 1C14.5 1.55226 14.9477 2 15.5 2H17.5Z" fill="currentColor"></path><path d="M4.5 8.00098C4.5 8.55324 4.94774 9.00098 5.5 9.00098H8.5C9.05226 9.00098 9.5 8.55324 9.5 8.00098V5.00098C9.5 4.44872 9.05226 4.00098 8.5 4.00098H5.5C4.94774 4.00098 4.5 4.44872 4.5 5.00098V8.00098Z" fill="currentColor"></path><path d="M4.5 14.999C4.5 15.5513 4.94774 15.999 5.5 15.999H8.5C9.05226 15.999 9.5 15.5513 9.5 14.999V11.999C9.5 11.4468 9.05226 10.999 8.5 10.999H5.5C4.94774 10.999 4.5 11.4468 4.5 11.999V14.999Z" fill="currentColor"></path><path d="M11.5 8.00098C11.5 8.55324 11.9477 9.00098 12.5 9.00098H15.5C16.0523 9.00098 16.5 8.55324 16.5 8.00098V5.00098C16.5 4.44872 16.0523 4.00098 15.5 4.00098H12.5C11.9477 4.00098 11.5 4.44872 11.5 5.00098V8.00098Z" fill="currentColor"></path><path d="M11.5 14.999C11.5 15.5513 11.9477 15.999 12.5 15.999H15.5C16.0523 15.999 16.5 15.5513 16.5 14.999V11.999C16.5 11.4468 16.0523 10.999 15.5 10.999H12.5C11.9477 10.999 11.5 11.4468 11.5 11.999V14.999Z" fill="currentColor"></path></svg>