<svg width="25" height="24" viewBox="0 0 25 24" fill="none" xmlns="http://www.w3.org/2000/svg">
<path fill-rule="evenodd" clip-rule="evenodd" d="M11.1139 18.2378C6.62995 18.2378 2.995 14.6028 2.995 10.1189C2.995 5.63495 6.62995 2 11.1139 2C15.5978 2 19.2328 5.63495 19.2328 10.1189C19.2328 11.386 18.9425 12.5853 18.4249 13.6539C18.0008 14.5294 18.0438 15.6135 18.7317 16.3014L22.2773 19.8471C22.6737 20.2434 22.6737 20.886 22.2773 21.2823C21.881 21.6786 21.2384 21.6786 20.8421 21.2823L17.2965 17.7367C16.6086 17.0488 15.5245 17.0057 14.649 17.4298C13.5803 17.9475 12.381 18.2378 11.1139 18.2378ZM17.2031 10.1188C17.2031 13.4817 14.4769 16.208 11.1139 16.208C7.75094 16.208 5.02471 13.4817 5.02471 10.1188C5.02471 6.75583 7.75094 4.02962 11.1139 4.02962C14.4769 4.02962 17.2031 6.75583 17.2031 10.1188Z" fill="white"/>
</svg>
