<svg width="20" height="20" viewBox="0 0 20 20" fill="none" xmlns="http://www.w3.org/2000/svg">
<path fill-rule="evenodd" clip-rule="evenodd" d="M8.43242 15.1982C4.6958 15.1982 1.66667 12.1691 1.66667 8.4325C1.66667 4.69587 4.6958 1.66675 8.43242 1.66675C12.169 1.66675 15.1982 4.69587 15.1982 8.4325C15.1982 9.48841 14.9563 10.4878 14.5249 11.3783C14.1715 12.1079 14.2073 13.0113 14.7806 13.5846L17.7353 16.5393C18.0656 16.8696 18.0656 17.4051 17.7353 17.7353C17.405 18.0656 16.8695 18.0656 16.5393 17.7353L13.5846 14.7807C13.0113 14.2074 12.1079 14.1715 11.3783 14.5249C10.4878 14.9563 9.48834 15.1982 8.43242 15.1982ZM13.5068 8.43241C13.5068 11.2348 11.2349 13.5067 8.43242 13.5067C5.62996 13.5067 3.3581 11.2348 3.3581 8.43241C3.3581 5.62994 5.62996 3.3581 8.43242 3.3581C11.2349 3.3581 13.5068 5.62994 13.5068 8.43241Z" fill="#A3A3A3"/>
</svg>
