<svg width="25" height="24" viewBox="0 0 25 24" fill="none" xmlns="http://www.w3.org/2000/svg">
<path d="M21.7203 7.0077C20.5772 7.0077 19.5939 6.62898 18.7469 5.99012C17.7755 5.25773 17.0775 4.18341 16.8311 2.94518C16.77 2.63924 16.7372 2.32352 16.734 1.99997H13.4685V10.9231L13.4646 15.8108C13.4646 17.1174 12.6137 18.2255 11.4341 18.615C11.0918 18.7281 10.7221 18.7817 10.3371 18.7607C9.84571 18.7337 9.38524 18.5853 8.98501 18.3459C8.13331 17.8365 7.55586 16.9125 7.5402 15.8553C7.51555 14.2032 8.85121 12.8562 10.5022 12.8562C10.8281 12.8562 11.1411 12.9094 11.4341 13.006V10.5671V9.69035C11.125 9.64458 10.8105 9.62072 10.4924 9.62072C8.68533 9.62072 6.99522 10.3719 5.7871 11.7251C4.87398 12.7478 4.32627 14.0526 4.24176 15.4208C4.13104 17.2181 4.78869 18.9266 6.06409 20.187C6.2515 20.3721 6.44829 20.5439 6.65407 20.7023C7.74756 21.5438 9.08439 21.9999 10.4924 21.9999C10.8105 21.9999 11.125 21.9765 11.4341 21.9308C12.7494 21.7359 13.963 21.1338 14.9207 20.187C16.0976 19.0239 16.7478 17.4797 16.7549 15.8361L16.7379 8.5374C17.2994 8.9705 17.9132 9.32886 18.5721 9.60702C19.5966 10.0393 20.6115 10.2584 21.7298 10.258V7.88679V7.00692L21.7203 7.0077Z" fill="white"/>
</svg>
