<svg width="25" height="24" viewBox="0 0 25 24" fill="none" xmlns="http://www.w3.org/2000/svg">
<g clip-path="url(#clip0_2_914)">
<path d="M19.9955 3.50851H5.96447C3.21161 3.50851 0.97998 5.74014 0.97998 8.49301V15.507C0.97998 18.2599 3.21161 20.4915 5.96447 20.4915H19.9955C22.7484 20.4915 24.98 18.2599 24.98 15.507V8.49301C24.98 5.74014 22.7484 3.50851 19.9955 3.50851ZM16.6245 12.3413L10.0617 15.4713C9.88688 15.5547 9.68488 15.4272 9.68488 15.2335V8.77778C9.68488 8.5813 9.89219 8.45396 10.0674 8.54278L16.6302 11.8685C16.8253 11.9673 16.8219 12.2472 16.6245 12.3413Z" fill="white"/>
</g>
<defs>
<clipPath id="clip0_2_914">
<rect width="24" height="24" fill="white" transform="translate(0.97998)"/>
</clipPath>
</defs>
</svg>
